<svg width="71" height="49" viewBox="0 0 71 49" fill="none" xmlns="http://www.w3.org/2000/svg">
<g clip-path="url(#clip0)">
<path d="M68.3434 21.6226L35.4811 44.3043L2.6187 21.6226C2.00563 21.2138 1.0285 21.2256 0.436268 21.6487C-0.141354 22.0615 -0.141354 22.7159 0.436268 23.1286L34.3914 46.5624C34.994 46.9782 35.971 46.9782 36.5738 46.5624L70.5289 23.1286C71.1211 22.7055 71.1041 22.0312 70.491 21.6224C69.8928 21.2237 68.9446 21.2237 68.3465 21.6224L68.3434 21.6226Z" fill="#607D8B"/>
<path d="M68.3434 2.44947L35.4811 25.1312L2.6187 2.44947C2.00563 2.04075 1.0285 2.05253 0.436268 2.47563C-0.141354 2.88845 -0.141354 3.54284 0.436268 3.95566L34.3914 27.3895C34.994 27.8053 35.971 27.8053 36.5738 27.3895L70.5289 3.95566C71.142 3.54693 71.1589 2.87268 70.5668 2.44947C69.9746 2.02637 68.9976 2.01468 68.3844 2.42331C68.3715 2.4319 68.3589 2.44058 68.3465 2.44947H68.3434Z" fill="#607D8B"/>
<path d="M35.481 46.8757C35.0713 46.8762 34.6782 46.7644 34.3882 46.5646L0.433148 23.1308C-0.159087 22.7077 -0.142013 22.0334 0.471058 21.6247C1.06923 21.226 2.01741 21.226 2.61544 21.6247L35.4808 44.3043L68.3432 21.6226C68.9563 21.2138 69.9334 21.2256 70.5256 21.6487C71.1034 22.0615 71.1034 22.7159 70.5256 23.1287L36.5707 46.5625C36.2819 46.7624 35.89 46.875 35.481 46.8757Z" fill="#E46D6D"/>
<path d="M35.481 27.7026C35.0714 27.7031 34.6782 27.5913 34.3882 27.3916L0.433148 3.95775C-0.159087 3.53465 -0.142013 2.86029 0.471058 2.45157C1.06923 2.05293 2.01741 2.05293 2.61558 2.45157L35.481 25.1312L68.3433 2.44947C68.9356 2.02637 69.9126 2.01468 70.5258 2.42331C71.139 2.83193 71.1558 3.50629 70.5637 3.92949C70.5512 3.93838 70.5387 3.94707 70.5258 3.95566L36.5707 27.3895C36.2819 27.5893 35.89 27.7019 35.481 27.7026Z" fill="#E46D6D"/>
</g>
<defs>
<clipPath id="clip0">
<rect width="71" height="49" fill="white"/>
</clipPath>
</defs>
</svg>
