<svg width="815" height="518" viewBox="0 0 815 518" fill="none" xmlns="http://www.w3.org/2000/svg">
<g clip-path="url(#clip0)">
<path d="M176.588 459.805C199.996 459.805 218.973 438.814 218.973 412.92C218.973 387.027 199.996 366.036 176.588 366.036C153.18 366.036 134.203 387.027 134.203 412.92C134.203 438.814 153.18 459.805 176.588 459.805Z" fill="#F2F2F2"/>
<path d="M183.48 452.944C206.888 452.944 225.864 431.953 225.864 406.059C225.864 380.165 206.888 359.174 183.48 359.174C160.071 359.174 141.095 380.165 141.095 406.059C141.095 431.953 160.071 452.944 183.48 452.944Z" fill="#E46D6D"/>
<path d="M742.026 354.182H217.614V355.765H742.026V354.182Z" fill="#3F3D56"/>
<path d="M489.208 14.7612H303.074V10.5175H218.674V14.7612H31.7724C30.119 14.7612 28.4818 15.1214 26.9542 15.8213C25.4267 16.5212 24.0387 17.5471 22.8696 18.8404C21.7004 20.1337 20.773 21.669 20.1403 23.3587C19.5075 25.0485 19.1819 26.8595 19.1819 28.6885V310.624C19.1819 314.317 20.5084 317.86 22.8696 320.472C25.2308 323.083 28.4332 324.551 31.7724 324.551H489.208C492.547 324.551 495.749 323.083 498.111 320.472C500.472 317.86 501.798 314.317 501.798 310.624V28.6885C501.798 26.8595 501.473 25.0485 500.84 23.3587C500.207 21.669 499.28 20.1337 498.111 18.8404C496.941 17.5471 495.553 16.5212 494.026 15.8213C492.498 15.1214 490.861 14.7612 489.208 14.7612Z" fill="#3F3D56"/>
<path d="M484.918 39.3746H36.062V319.458H484.918V39.3746Z" fill="#E46D6D"/>
<path d="M260.106 31.736C262.649 31.736 264.71 29.456 264.71 26.6435C264.71 23.831 262.649 21.5511 260.106 21.5511C257.564 21.5511 255.503 23.831 255.503 26.6435C255.503 29.456 257.564 31.736 260.106 31.736Z" fill="#E46D6D"/>
<path opacity="0.1" d="M356.553 319.459H36.0621V39.3749L356.553 319.459Z" fill="black"/>
<path d="M106.294 298.5C130.123 298.5 149.44 277.132 149.44 250.773C149.44 224.415 130.123 203.047 106.294 203.047C82.4659 203.047 63.149 224.415 63.149 250.773C63.149 277.132 82.4659 298.5 106.294 298.5Z" fill="#F2F2F2"/>
<path d="M406.765 190.426H364.837V200.117H406.765V190.426Z" fill="#3F3D56"/>
<path d="M457.454 114.973H314.148V119.126H457.454V114.973Z" fill="#3F3D56"/>
<path d="M457.454 128.125H314.148V132.278H457.454V128.125Z" fill="#3F3D56"/>
<path d="M457.454 141.277H314.148V145.431H457.454V141.277Z" fill="#3F3D56"/>
<path d="M457.454 154.43H314.148V158.583H457.454V154.43Z" fill="#3F3D56"/>
<path d="M457.454 167.582H314.148V171.736H457.454V167.582Z" fill="#3F3D56"/>
<path d="M457.454 45.0569H439.932V64.4395H457.454V45.0569Z" fill="#F2F2F2"/>
<path d="M465.589 73.4385H444.312V49.9025H465.589V73.4385ZM445.237 72.4152H464.664V50.9259H445.237V72.4152Z" fill="#3F3D56"/>
<path d="M514.401 314.366H470.596V310.875C470.596 310.784 470.58 310.694 470.548 310.61C470.517 310.526 470.471 310.449 470.412 310.385C470.354 310.321 470.285 310.27 470.209 310.235C470.133 310.2 470.052 310.182 469.97 310.182H454.951C454.869 310.182 454.787 310.2 454.711 310.235C454.635 310.27 454.567 310.321 454.508 310.385C454.45 310.449 454.404 310.526 454.373 310.61C454.341 310.694 454.325 310.784 454.325 310.875V314.366H444.938V310.875C444.938 310.784 444.922 310.694 444.891 310.61C444.859 310.526 444.813 310.449 444.755 310.385C444.697 310.321 444.628 310.27 444.552 310.235C444.476 310.2 444.395 310.182 444.312 310.182H429.293C429.211 310.182 429.13 310.2 429.054 310.235C428.978 310.27 428.909 310.321 428.851 310.385C428.793 310.449 428.747 310.526 428.715 310.61C428.684 310.694 428.668 310.784 428.668 310.875V314.366H419.281V310.875C419.281 310.784 419.265 310.694 419.233 310.61C419.202 310.526 419.156 310.449 419.097 310.385C419.039 310.321 418.97 310.27 418.894 310.235C418.819 310.2 418.737 310.182 418.655 310.182H403.636C403.554 310.182 403.472 310.2 403.397 310.235C403.321 310.27 403.252 310.321 403.193 310.385C403.135 310.449 403.089 310.526 403.058 310.61C403.026 310.694 403.01 310.784 403.01 310.875V314.366H393.623V310.875C393.623 310.784 393.607 310.694 393.576 310.61C393.544 310.526 393.498 310.449 393.44 310.385C393.382 310.321 393.313 310.27 393.237 310.235C393.161 310.2 393.08 310.182 392.997 310.182H377.978C377.896 310.182 377.815 310.2 377.739 310.235C377.663 310.27 377.594 310.321 377.536 310.385C377.478 310.449 377.432 310.526 377.4 310.61C377.369 310.694 377.353 310.784 377.353 310.875V314.366H367.966V310.875C367.966 310.784 367.95 310.694 367.918 310.61C367.887 310.526 367.841 310.449 367.783 310.385C367.724 310.321 367.655 310.27 367.579 310.235C367.504 310.2 367.422 310.182 367.34 310.182H352.321C352.239 310.182 352.157 310.2 352.082 310.235C352.006 310.27 351.937 310.321 351.879 310.385C351.82 310.449 351.774 310.526 351.743 310.61C351.711 310.694 351.695 310.784 351.695 310.875V314.366H342.308V310.875C342.308 310.784 342.292 310.694 342.261 310.61C342.229 310.526 342.183 310.449 342.125 310.385C342.067 310.321 341.998 310.27 341.922 310.235C341.846 310.2 341.765 310.182 341.683 310.182H326.664C326.581 310.182 326.5 310.2 326.424 310.235C326.348 310.27 326.279 310.321 326.221 310.385C326.163 310.449 326.117 310.526 326.085 310.61C326.054 310.694 326.038 310.784 326.038 310.875V314.366H316.651V310.875C316.651 310.784 316.635 310.694 316.603 310.61C316.572 310.526 316.526 310.449 316.468 310.385C316.409 310.321 316.34 310.27 316.264 310.235C316.189 310.2 316.107 310.182 316.025 310.182H198.376C198.294 310.182 198.213 310.2 198.137 310.235C198.061 310.27 197.992 310.321 197.934 310.385C197.876 310.449 197.829 310.526 197.798 310.61C197.767 310.694 197.75 310.784 197.75 310.875V314.366H188.363V310.875C188.363 310.784 188.347 310.694 188.316 310.61C188.284 310.526 188.238 310.449 188.18 310.385C188.122 310.321 188.053 310.27 187.977 310.235C187.901 310.2 187.82 310.182 187.738 310.182H172.719C172.636 310.182 172.555 310.2 172.479 310.235C172.403 310.27 172.334 310.321 172.276 310.385C172.218 310.449 172.172 310.526 172.14 310.61C172.109 310.694 172.093 310.784 172.093 310.875V314.366H162.706V310.875C162.706 310.784 162.69 310.694 162.658 310.61C162.627 310.526 162.581 310.449 162.523 310.385C162.465 310.321 162.396 310.27 162.32 310.235C162.244 310.2 162.162 310.182 162.08 310.182H147.061C146.979 310.182 146.898 310.2 146.822 310.235C146.746 310.27 146.677 310.321 146.619 310.385C146.561 310.449 146.514 310.526 146.483 310.61C146.452 310.694 146.435 310.784 146.435 310.875V314.366H137.048V310.875C137.048 310.784 137.032 310.694 137.001 310.61C136.969 310.526 136.923 310.449 136.865 310.385C136.807 310.321 136.738 310.27 136.662 310.235C136.586 310.2 136.505 310.182 136.423 310.182H121.404C121.321 310.182 121.24 310.2 121.164 310.235C121.088 310.27 121.019 310.321 120.961 310.385C120.903 310.449 120.857 310.526 120.826 310.61C120.794 310.694 120.778 310.784 120.778 310.875V314.366H111.391V310.875C111.391 310.784 111.375 310.694 111.343 310.61C111.312 310.526 111.266 310.449 111.208 310.385C111.15 310.321 111.081 310.27 111.005 310.235C110.929 310.2 110.847 310.182 110.765 310.182H95.7462C95.664 310.182 95.5826 310.2 95.5067 310.235C95.4308 310.27 95.3618 310.321 95.3037 310.385C95.2456 310.449 95.1995 310.526 95.168 310.61C95.1366 310.694 95.1204 310.784 95.1204 310.875V314.366H85.7335V310.875C85.7335 310.784 85.7174 310.694 85.6859 310.61C85.6545 310.526 85.6084 310.449 85.5502 310.385C85.4921 310.321 85.4231 310.27 85.3472 310.235C85.2713 310.2 85.1899 310.182 85.1077 310.182H70.0887C70.0065 310.182 69.9252 310.2 69.8492 310.235C69.7733 310.27 69.7043 310.321 69.6462 310.385C69.5881 310.449 69.542 310.526 69.5106 310.61C69.4791 310.694 69.4629 310.784 69.4629 310.875V314.366H60.076V310.875C60.076 310.784 60.0599 310.694 60.0284 310.61C59.997 310.526 59.9509 310.449 59.8928 310.385C59.8347 310.321 59.7657 310.27 59.6897 310.235C59.6138 310.2 59.5324 310.182 59.4503 310.182H44.4312C44.3491 310.182 44.2677 310.2 44.1918 310.235C44.1158 310.27 44.0468 310.321 43.9887 310.385C43.9306 310.449 43.8845 310.526 43.8531 310.61C43.8216 310.694 43.8055 310.784 43.8055 310.875V314.366H15.019C11.0357 314.366 7.21558 316.116 4.39897 319.232C1.58236 322.348 3.79488e-06 326.573 0 330.98V338.492C1.13847e-05 342.898 1.58237 347.124 4.39898 350.239C7.21559 353.355 11.0357 355.105 15.019 355.105H514.401C518.384 355.105 522.205 353.355 525.021 350.239C527.838 347.124 529.42 342.898 529.42 338.492V330.98C529.42 326.573 527.838 322.348 525.021 319.232C522.205 316.116 518.384 314.366 514.401 314.366Z" fill="#3F3D56"/>
<path d="M116.738 280.583C105.984 280.583 95.4717 277.055 86.5302 270.446C77.5886 263.837 70.6195 254.444 66.5041 243.454C62.3888 232.463 61.312 220.37 63.41 208.703C65.508 197.036 70.6865 186.319 78.2907 177.907C85.8949 169.496 95.5832 163.767 106.13 161.447C116.678 159.126 127.61 160.317 137.546 164.869C147.481 169.422 155.973 177.131 161.947 187.022C167.922 196.913 171.111 208.541 171.111 220.437C171.095 236.383 165.361 251.671 155.168 262.946C144.974 274.222 131.154 280.565 116.738 280.583ZM116.738 161.874C106.267 161.874 96.0314 165.308 87.3251 171.743C78.6189 178.178 71.8331 187.325 67.8261 198.026C63.819 208.727 62.7706 220.502 64.8134 231.862C66.8562 243.222 71.8984 253.657 79.3025 261.847C86.7065 270.037 96.1399 275.615 106.41 277.875C116.679 280.134 127.324 278.974 136.998 274.542C146.672 270.109 154.94 262.603 160.758 252.973C166.575 243.342 169.68 232.019 169.68 220.437C169.664 204.91 164.081 190.025 154.156 179.046C144.231 168.067 130.774 161.891 116.738 161.874Z" fill="#3F3D56"/>
<path d="M601.801 25.7544H419.366V27.3372H601.801V25.7544Z" fill="#3F3D56"/>
<path d="M815 443.609H290.588V445.192H815V443.609Z" fill="#3F3D56"/>
<path d="M320.279 516.417H137.844V518H320.279V516.417Z" fill="#3F3D56"/>
<path d="M357.001 435.265H336.969V457.424H357.001V435.265Z" fill="#E46D6D"/>
<path d="M369.163 444.762H344.839V417.855H369.163V444.762ZM345.896 443.592H368.106V419.025H345.896V443.592Z" fill="#3F3D56"/>
<path d="M589.516 17.4106H569.484V39.5696H589.516V17.4106Z" fill="#E46D6D"/>
<path d="M601.679 26.9073H577.354V0H601.679V26.9073ZM578.412 25.7374H600.621V1.16989H578.412V25.7374Z" fill="#3F3D56"/>
<path d="M791.268 435.265H771.236V457.424H791.268V435.265Z" fill="#E46D6D"/>
<path d="M803.431 444.762H779.106V417.855H803.431V444.762ZM780.164 443.592H802.373V419.025H780.164V443.592Z" fill="#3F3D56"/>
<path d="M756.335 183.57H754.633V132.001C754.633 128.082 753.935 124.201 752.579 120.58C751.223 116.959 749.236 113.668 746.73 110.897C744.225 108.125 741.25 105.927 737.977 104.427C734.703 102.927 731.195 102.155 727.651 102.155H628.883C625.34 102.155 621.832 102.927 618.558 104.427C615.284 105.927 612.31 108.125 609.805 110.897C607.299 113.668 605.312 116.959 603.956 120.58C602.6 124.201 601.902 128.082 601.902 132.001V414.909C601.902 418.829 602.6 422.71 603.956 426.331C605.312 429.952 607.299 433.242 609.805 436.014C612.31 438.785 615.284 440.984 618.558 442.484C621.832 443.984 625.34 444.756 628.883 444.756H727.651C731.195 444.756 734.703 443.984 737.977 442.484C741.25 440.984 744.225 438.785 746.73 436.014C749.236 433.242 751.223 429.952 752.579 426.331C753.935 422.71 754.633 418.829 754.633 414.909V220.277H756.335V183.57Z" fill="#3F3D56"/>
<path d="M748.887 133.756V416.251C748.888 422.162 746.766 427.832 742.988 432.013C739.21 436.194 734.085 438.543 728.741 438.544H629.496C624.152 438.543 619.027 436.194 615.249 432.013C611.47 427.832 609.348 422.162 609.349 416.251V133.756C609.35 127.845 611.473 122.177 615.251 117.998C619.029 113.819 624.153 111.471 629.496 111.47H641.537C640.944 113.078 640.718 114.822 640.878 116.549C641.039 118.277 641.581 119.934 642.457 121.375C643.332 122.815 644.515 123.996 645.9 124.812C647.286 125.629 648.831 126.056 650.401 126.055H706.984C708.554 126.056 710.1 125.629 711.485 124.812C712.87 123.996 714.053 122.816 714.929 121.375C715.804 119.934 716.346 118.277 716.507 116.549C716.667 114.822 716.441 113.078 715.849 111.47H728.741C734.084 111.471 739.208 113.819 742.986 117.998C746.764 122.177 748.887 127.845 748.887 133.756Z" fill="#E46D6D"/>
<path d="M693.901 297.736H664.336V307.427H693.901V297.736Z" fill="#3F3D56"/>
<path d="M729.642 222.282H628.594V226.435H729.642V222.282Z" fill="#3F3D56"/>
<path d="M729.642 235.434H628.594V239.588H729.642V235.434Z" fill="#3F3D56"/>
<path d="M729.642 248.587H628.594V252.74H729.642V248.587Z" fill="#3F3D56"/>
<path d="M729.642 261.739H628.594V265.893H729.642V261.739Z" fill="#3F3D56"/>
<path d="M729.642 274.892H628.594V279.045H729.642V274.892Z" fill="#3F3D56"/>
<path d="M682.648 167.125H665.126V186.508H682.648V167.125Z" fill="#F2F2F2"/>
<path d="M671.834 171.972V195.508H693.111V171.972H671.834ZM692.188 194.487H672.757V172.993H692.188V194.487Z" fill="#3F3D56"/>
<path opacity="0.1" d="M748.887 386.083V416.251C748.888 422.162 746.766 427.832 742.988 432.013C739.21 436.194 734.085 438.543 728.741 438.544H629.496C624.152 438.543 619.027 436.194 615.249 432.013C611.47 427.832 609.348 422.162 609.349 416.251V264.137L692.962 337.207L694.393 338.457L709.946 352.045L711.399 353.319L748.887 386.083Z" fill="black"/>
<path d="M670.533 429.389C687.866 429.389 701.918 413.846 701.918 394.672C701.918 375.499 687.866 359.956 670.533 359.956C653.2 359.956 639.149 375.499 639.149 394.672C639.149 413.846 653.2 429.389 670.533 429.389Z" fill="#F2F2F2"/>
<path d="M229.061 518C216.751 518 204.717 513.962 194.481 506.397C184.245 498.831 176.267 488.078 171.556 475.497C166.845 462.916 165.613 449.073 168.014 435.717C170.416 422.361 176.344 410.093 185.049 400.464C193.754 390.835 204.844 384.277 216.918 381.621C228.992 378.964 241.507 380.328 252.88 385.539C264.254 390.75 273.975 399.575 280.814 410.897C287.653 422.22 291.304 435.531 291.304 449.149C291.285 467.403 284.721 484.904 273.053 497.811C261.384 510.719 245.563 517.979 229.061 518ZM229.061 381.881C217.034 381.881 205.276 385.826 195.276 393.217C185.275 400.609 177.481 411.115 172.878 423.407C168.276 435.698 167.071 449.224 169.418 462.272C171.764 475.321 177.556 487.307 186.061 496.715C194.565 506.122 205.401 512.529 217.197 515.125C228.994 517.72 241.221 516.388 252.333 511.297C263.445 506.205 272.942 497.583 279.624 486.521C286.306 475.459 289.873 462.453 289.873 449.149C289.855 431.314 283.442 414.216 272.041 401.605C260.641 388.995 245.184 381.901 229.061 381.881Z" fill="#3F3D56"/>
<path d="M679.784 421.45C672.001 421.45 664.394 418.897 657.923 414.115C651.452 409.332 646.408 402.534 643.43 394.581C640.452 386.627 639.673 377.875 641.191 369.432C642.709 360.989 646.457 353.233 651.96 347.146C657.463 341.058 664.474 336.913 672.107 335.234C679.74 333.554 687.652 334.416 694.842 337.71C702.032 341.005 708.177 346.584 712.501 353.742C716.825 360.9 719.132 369.315 719.132 377.924C719.121 389.464 714.971 400.527 707.594 408.687C700.218 416.847 690.216 421.437 679.784 421.45ZM679.784 335.98C672.284 335.98 664.953 338.44 658.718 343.049C652.482 347.658 647.622 354.208 644.752 361.873C641.882 369.537 641.131 377.97 642.594 386.107C644.057 394.243 647.669 401.716 652.972 407.582C658.275 413.448 665.031 417.443 672.386 419.062C679.742 420.68 687.366 419.849 694.294 416.675C701.223 413.5 707.145 408.124 711.311 401.226C715.478 394.329 717.702 386.219 717.702 377.924C717.69 366.803 713.692 356.142 706.583 348.279C699.475 340.416 689.837 335.992 679.784 335.98Z" fill="#3F3D56"/>
</g>
<defs>
<clipPath id="clip0">
<rect width="815" height="518" fill="white"/>
</clipPath>
</defs>
</svg>
